<svg xmlns="http://www.w3.org/2000/svg" viewBox="0 0 324 294.67"><defs><style>.cls-1{fill:#b97a41;}.cls-2{fill:#a24a1f;}.cls-3{fill:#5a2323;}.cls-4{fill:#e6cdad;}.cls-5{fill:#d7b173;}.cls-6{fill:#8b17ff;}.cls-7{fill:#6517de;}</style></defs><title>hands-left</title><g id="OBJECTS"><path class="cls-1" d="M26.12,153.68S50.7,269.57,208.36,246.83l6.39-14.45s12.84-7.83,11.14-36.6c5.94-.69,21.23-4.33,12.91,30.37l2.59,3.2,7.38-.84,1.32-4.47,21.42-3,6.19,4.42.87,6.18L276.78,234l2.78,4.78-.72,5.61-.18,2.58,2,1.74,1,9-2.58,3.13,1,11.25-7.21,7.28L258.28,281l-40.77-3S94.77,306.66,22,215.76c-3.09-27.13-6.92-60.82-6.92-60.82Z"/><path class="cls-2" d="M272.36,239.55c-4.92-.48-19.65,1.94-19.65,1.94l5.51,4.23,12.43-.83,4.08,1,2.77,1.23,1.68-3.83S275.73,239.88,272.36,239.55Zm1,12.54c-4.56-1.08-19.14,2.16-19.14,2.16l2.38,2.61-1.26-.63-4-3.91-.21-3.46,4.33-1.4.87-2.35-1.53-.82-3.69-4.16.11-3.8,5.29-1.19-.1-.87c.52.18,5.7.23,5.7.23s8.43-1.49,8.77-1.43c4,.71,7.1,4.38,7.1,4.38l-.5-1.66-1-1.36.81-1.39s-2.14-3.45-5.22-3.9c-5.16-.75-20.8,1.62-20.8,1.62l1,.7-1.78-.82-1.81-2.12-7.25.83-.35-.43-.63.23-1-3.54s9.28-26.38-5.42-29.12c0,0,6.13,11.71-2.06,29.08,0,0,8.34,14.33.21,27.15a37,37,0,0,0,8-9.5l.71-12.59.75.47.16,1.41,3,3.6c-1.22,5.69,1.05,9.16,1.05,9.16-4.19,7.83,1.35,11.86,1.35,11.86a19.61,19.61,0,0,0,1.53,13.45S238.77,268.91,227,268s-35,13-105.55-1.56C67.71,255.34,33.34,216.69,20.06,199c.64,5.65,1.29,11.36,1.91,16.81.85,1.07,1.72,2.1,2.58,3.13l.12.11s29.66,30.44,69.11,49.05c1.23.58,2.48,1.14,3.75,1.67a200.11,200.11,0,0,0,31.66,8.62c32.18,5.18,63.34,1.7,63.34,1.7l17.18-.62c5-.8,7.8-1.45,7.8-1.45l16.55,1.23,10,.14,23.18.64s4.43-1.18,4.4-2.1,4.17-2.44,4.17-2.44l3.33-2.68.17-3.36s-3.45-5.58-7.93-5.82-17.55,1.05-17.55,1.05l1.37,3.61L252.58,262l1.71-2.88,3.08-1.34.83.9,13.56-1.41,4.62,3.12,2.75.47,1.6-3.87S275.49,252.6,273.34,252.09Z"/><path class="cls-3" d="M232.91,255a1.24,1.24,0,0,1-1-2.15c11.73-10.43,6-25.62,5.72-26.26a1.26,1.26,0,0,1,0-1c2.37-5.11,3-8.89,2.69-15-.43-7.32-3.74-12.3-5.42-13.34a7.4,7.4,0,0,0-5.71-1.22,3.32,3.32,0,0,0-2.16,1.76c-.87,1.78-.61,4.06-.36,6.26A25.61,25.61,0,0,1,227,207c-.07,17.35-4.12,20.39-8,23.33a18.78,18.78,0,0,0-3.21,2.83c-3.6,4.2-6.11,13.86-6.14,14a1.2,1.2,0,0,1-.94.9c-.37.08-37.55,7.53-78.52-.28-24.11-4.6-44.82-13.51-61.53-26.48C47.64,205.06,33,182.43,24.94,154a1.23,1.23,0,0,1,2.37-.67c7.88,27.88,22.26,50.08,42.73,66,16.39,12.72,36.73,21.48,60.44,26,37.32,7.13,71.48,1.44,76.89.44.69-2.47,3.07-10.24,6.44-14.18a20.8,20.8,0,0,1,3.61-3.2c3.6-2.7,7-5.25,7.06-21.37a24.15,24.15,0,0,0-.21-2.61c-.28-2.43-.6-5.19.59-7.62a5.87,5.87,0,0,1,3.69-3.06,9.69,9.69,0,0,1,7.7,1.51c2.45,1.51,6.12,7.26,6.59,15.29a30.19,30.19,0,0,1-2.71,15.69c1,3,5.21,18-6.56,28.49A1.16,1.16,0,0,1,232.91,255Z"/><path class="cls-3" d="M265.61,281.65c-3.27.41-6.69.56-7.28.58h-.15l-40.6-3c-2.6.51-34,6.32-72.57,2-23.6-2.63-45.27-8.46-64.42-17.34A157.84,157.84,0,0,1,21,216.51a1.23,1.23,0,0,1,2-1.5,155.45,155.45,0,0,0,58.67,46.63c18.91,8.77,40.33,14.53,63.66,17.13a258.44,258.44,0,0,0,72-2,1.27,1.27,0,0,1,.34,0l40.7,3c2.63-.11,9.67-.6,11.79-1.58,7-3.19,8.52-5.08,9.18-7.87.43-1.82.22-5.45-.6-6.79a8.66,8.66,0,0,0-5.86-4.3c-3-.63-12,.3-15.25.71-.64.06-2.47.4-3.13,1.3-1.17,1.58-1,4.24,2.14,6.62,1.56,1.2,4.73.9,5.82.68h.1l5.57-.64a1.23,1.23,0,1,1,.28,2.45l-5.52.63c-.72.14-5.11.88-7.75-1.15-4.41-3.38-4.45-7.58-2.63-10.05,1.45-2,4.52-2.26,4.86-2.28s12-1.52,16-.68a11.2,11.2,0,0,1,7.46,5.44c1.31,2.15,1.4,6.49.89,8.64-.95,4-3.51,6.32-10.55,9.55A22.4,22.4,0,0,1,265.61,281.65Z"/><path class="cls-3" d="M279,261.45a1.26,1.26,0,0,1-1-.34,1.24,1.24,0,0,1,0-1.74c.13-.14,3.09-3.4,1-9.05-.47-1.25-3.35-3.19-5.06-3.39-5.31-.64-18,1.16-18.08,1.18a4.3,4.3,0,0,0-2.49,1.07c-1.29,1.81.06,3.89,1.43,5.32,1.65,1.72,5,2.47,6.21,2.61a1.23,1.23,0,0,1,1.08,1.37,1.24,1.24,0,0,1-1.37,1.08c-.21,0-5.11-.65-7.7-3.35-4-4.15-2.49-7.3-1.66-8.46,1.19-1.68,3.87-2.05,4.17-2.09.51-.07,13.08-1.86,18.71-1.18,2.4.28,6.22,2.69,7.07,5,2.68,7.16-1.34,11.44-1.51,11.62A1.28,1.28,0,0,1,279,261.45Z"/><path class="cls-3" d="M277.64,248.38a1.24,1.24,0,0,1-.89-2.22c.14-.1,3-2.33,1.62-7.09a7.77,7.77,0,0,0-2.62-3.63,1.23,1.23,0,0,1-.27-1.74s2.33-3.21,1.51-6.7c-.73-3.11-3-3.92-6.12-4.19-4.2-.36-16.58,1.45-16.7,1.46a8.6,8.6,0,0,0-3.71,1c-.68.62-.69,2.22.81,4.39,1.81,2.63,6.56,3.76,6.61,3.77a1.24,1.24,0,0,1,1,1.27,1.22,1.22,0,0,1-1.1,1.16l-2.79.32c-.53.08-2.24.44-2.69,1.33-.77,1.49.1,3.47,2.21,5a11.86,11.86,0,0,0,7.33,2.38,1.23,1.23,0,0,1,1.33,1.13A1.21,1.21,0,0,1,262,247.4a14.34,14.34,0,0,1-9-2.85c-3.13-2.32-4.28-5.52-2.94-8.15a5,5,0,0,1,2.86-2.24,10.57,10.57,0,0,1-3.68-3.07c-2.51-3.64-1.81-6.38-.44-7.63s4.36-1.58,5-1.63c.92-.14,12.83-1.86,17.23-1.48,1.92.16,7,.6,8.31,6.09a11.07,11.07,0,0,1-1.31,7.75,9.61,9.61,0,0,1,2.66,4.21c1.83,6.48-2.35,9.62-2.53,9.75A1.23,1.23,0,0,1,277.64,248.38Z"/><path class="cls-3" d="M248.93,229.73h0l-7.38.84a1.23,1.23,0,1,1-.28-2.45l7.38-.84a1.23,1.23,0,0,1,.3,2.45Z"/><path class="cls-3" d="M279.71,240a1.25,1.25,0,0,1-1.34-.87,7.24,7.24,0,0,0-5.68-4.67,34.38,34.38,0,0,0-5.49.38l-13.34,1.52a1.23,1.23,0,0,1-.3-2.45h0l13.32-1.52a34,34,0,0,1,6.2-.36,9.75,9.75,0,0,1,7.64,6.38,1.24,1.24,0,0,1-.83,1.54Z"/><path class="cls-4" d="M101.9,16S109.27,118.88,248,118.07l7.24-11.7s12-5.22,14-30.24c5.21.11,18.83-1.2,7.51,27.73l1.85,3.07,6.47.16,1.67-3.7h18.83l4.82,4.55v5.44l-1.82,1.76,1.83,4.45-1.29,4.75-.47,2.21,1.55,1.74-.19,7.9-2.6,2.39-.5,9.83-7.09,5.41L287,153.5,252.16,146S142.86,156.13,90.91,69c.58-23.77,1.29-53.29,1.29-53.29Z"/><path class="cls-5" d="M304.05,119.43c-4.18-1-17.18-.67-17.18-.67l4.25,4.31,10.82.76,3.4,1.33,2.24,1.39,1.91-3.11S306.92,120.11,304.05,119.43Zm-.65,10.93c-3.8-1.48-16.77-.42-16.77-.42l1.75,2.54-1-.69-3-3.86.23-3,3.9-.69,1-1.92-1.22-.9-2.69-4,.55-3.27,4.7-.39,0-.76c.43.22,4.89.88,4.89.88s7.45-.29,7.74-.2c3.4,1.1,5.6,4.63,5.6,4.63l-.23-1.49-.68-1.29.87-1.1s-1.44-3.23-4-4c-4.36-1.26-18.14-1.08-18.14-1.08l.75.72-1.44-.92-1.3-2-6.36-.15-.24-.41-.57.13-.46-3.18s11.15-21.65-1.21-25.76c0,0,3.89,10.83-5.24,24.83,0,0,5.48,13.36-3.06,23.44a32,32,0,0,0,8-7.23L277.93,108l.59.5,0,1.23,2.19,3.47c-1.74,4.76-.2,8-.2,8-4.54,6.26-.25,10.4-.25,10.4a17.1,17.1,0,0,0-.28,11.78s-8.38-2.63-18.38-4.81-31.75,7-90.86-13.93c-45.07-16-70.1-53.44-79.44-70.32-.12,4.95-.24,10-.36,14.73.61,1,1.23,2,1.86,3l.08.12s22,29.79,53.77,50.55c1,.65,2,1.27,3,1.88a173.56,173.56,0,0,0,26.28,11.22c27.14,8.3,54.44,9,54.44,9l14.88,1.51c4.41-.09,6.91-.32,6.91-.32l14.12,3,8.63,1.31,19.91,3.32s4-.49,4.05-1.29,3.89-1.6,3.89-1.6l3.19-1.92.55-2.87s-2.32-5.23-6.16-6-15.26-1.19-15.26-1.19l.76,3.28-1.52-5.74,1.81-2.28,2.83-.79.6.87,11.87.41,3.61,3.24,2.32.73,1.84-3.15S305.2,131.06,303.4,130.36Z"/><path class="cls-3" d="M130.37,79.29c-16.06-16.48-26-37.73-29.53-63.16a1.08,1.08,0,0,1,2.13-.3c3.46,25,13.2,45.82,28.94,62l0,0c12.62,12.93,29.12,22.91,49,29.65,31.35,10.61,61.49,9.77,66.27,9.56.9-2.05,3.87-8.48,7.25-11.48a17.94,17.94,0,0,1,3.5-2.32c3.42-1.9,6.66-3.69,8.63-17.59a19.32,19.32,0,0,0,.13-2.27c.05-2.14.11-4.56,1.42-6.52a5.15,5.15,0,0,1,3.55-2.19,8.43,8.43,0,0,1,6.46,2.22c1.94,1.59,4.41,7,3.86,14a26.18,26.18,0,0,1-4.21,13.21c.5,2.67,2.35,16.17-9,23.79a1.07,1.07,0,1,1-1.19-1.78c11.36-7.6,8.2-21.39,8.06-22a1.08,1.08,0,0,1,.14-.84,24,24,0,0,0,4.11-12.58c.5-6.37-1.77-11.06-3.09-12.16A6.45,6.45,0,0,0,272,76.8,2.94,2.94,0,0,0,270,78.06c-1,1.44-1,3.43-1.06,5.36a22.08,22.08,0,0,1-.15,2.53c-2.12,15-6,17.1-9.72,19.17a15.75,15.75,0,0,0-3.11,2c-3.6,3.2-6.93,11.23-7,11.31a1.07,1.07,0,0,1-.92.67c-.33,0-33.29,2-67.69-9.62-20.25-6.84-37.05-17-49.92-30.17Z"/><path class="cls-3" d="M110.76,97.22A135.18,135.18,0,0,1,90,69.57a1.07,1.07,0,1,1,1.87-1.06,135.2,135.2,0,0,0,45,47.19c15.26,9.82,33,17.35,52.84,22.38A224.76,224.76,0,0,0,252.09,145a1,1,0,0,1,.29,0l34.74,7.47c2.29.22,8.42.64,10.37.05,6.39-1.92,7.95-3.37,8.85-5.69.59-1.53.84-4.68.3-5.94a7.62,7.62,0,0,0-4.54-4.41c-2.51-.89-10.42-1.17-13.25-1.2A4.44,4.44,0,0,0,286,136c-1.19,1.22-1.34,3.53,1,5.93l0,.05c1.21,1.22,4,1.34,4.94,1.28h.09l4.89.12a1.08,1.08,0,0,1-.06,2.15l-4.83-.12c-.64,0-4.52.15-6.56-1.91l0-.06c-3.34-3.42-2.87-7-1-8.93,1.49-1.51,4.16-1.4,4.46-1.39s10.54.13,13.9,1.33a9.74,9.74,0,0,1,5.79,5.58c.87,2,.43,5.76-.27,7.56-1.29,3.34-3.78,5-10.23,7-2.73.82-10.39.11-11.25,0l-.13,0-34.66-7.45a227.92,227.92,0,0,1-62.84-6.92c-20-5.08-38-12.7-53.5-22.65A142,142,0,0,1,110.76,97.22Z"/><path class="cls-3" d="M286,132.21a6.14,6.14,0,0,1-.62-.73c-2.94-4-1.28-6.59-.42-7.49,1.22-1.31,3.58-1.31,3.84-1.3.45,0,11.51,0,16.28,1.21,2,.53,5,3.06,5.51,5.14,1.45,6.49-2.52,9.71-2.69,9.84a1.08,1.08,0,0,1-1.34-1.69c.14-.1,3.08-2.56,1.93-7.68-.25-1.14-2.51-3.16-3.95-3.54-4.51-1.18-15.64-1.14-15.75-1.14a3.8,3.8,0,0,0-2.27.63c-1.33,1.41-.41,3.37.6,4.76,1.22,1.68,4.05,2.73,5,3a1.07,1.07,0,0,1-.54,2.08A13.84,13.84,0,0,1,286,132.21Z"/><path class="cls-3" d="M286.59,121.26c-2.29-2.34-2.83-5.15-1.39-7.21a4.28,4.28,0,0,1,2.73-1.59,9.06,9.06,0,0,1-2.81-3.09c-1.73-3.43-.8-5.72.53-6.63s4-.84,4.55-.81c.81,0,11.29-.07,15,.78,1.64.37,6,1.36,6.44,6.25a9.57,9.57,0,0,1-2.06,6.52,8.45,8.45,0,0,1,1.8,4c.8,5.81-3.17,8-3.34,8.11a1.07,1.07,0,1,1-1-1.88c.13-.08,2.83-1.66,2.24-5.93a6.76,6.76,0,0,0-1.82-3.45,1.14,1.14,0,0,1-.34-.76,1.09,1.09,0,0,1,.31-.77,7.93,7.93,0,0,0,2.1-5.59c-.26-2.77-2.1-3.75-4.78-4.35-3.57-.81-14.47-.73-14.58-.73a7.34,7.34,0,0,0-3.31.43c-.66.46-.87,1.83.17,3.89s4.14,3.62,5.25,4a1.07,1.07,0,0,1-.41,2.07l-2.44-.05c-.49,0-2,.12-2.48.82-.85,1.2-.34,3,1.3,4.61a10.47,10.47,0,0,0,6.05,2.93,1.07,1.07,0,0,1,1,1.14,1.06,1.06,0,0,1-1.13,1,12.42,12.42,0,0,1-7.42-3.53Z"/><path class="cls-3" d="M277.78,107.68a1.08,1.08,0,0,1,.8-1.82l6.47.15a1.09,1.09,0,0,1,1.05,1.1,1.07,1.07,0,0,1-1.1,1l-6.47-.16A1.06,1.06,0,0,1,277.78,107.68Z"/><path class="cls-3" d="M287.73,114.11a1.09,1.09,0,0,1-.3-.78,1.07,1.07,0,0,1,1.1-1l11.67.28a28.68,28.68,0,0,1,5.39.42,8.47,8.47,0,0,1,5.83,6.42,1.07,1.07,0,0,1-2.12.34A6.34,6.34,0,0,0,305,115a29.82,29.82,0,0,0-4.78-.32l-11.69-.29A1.08,1.08,0,0,1,287.73,114.11Z"/><path class="cls-6" d="M112.83,9.5c6.63,97,114.91,103.6,114.91,103.6,2.65.8,2.41,9.29-.51,19s-7.44,16.86-10.08,16.06c0,0-83.57-6.23-125.76-80.92l11-41Z"/><path class="cls-7" d="M225.38,137.33S137.81,129,94.27,56.47C92,64.94,91.39,67.19,91.39,67.19S124,136.5,217.15,148.11C217.15,148.11,223.53,142.61,225.38,137.33Z"/><path class="cls-3" d="M114.32,99.6A155,155,0,0,1,90.45,67.72a1.09,1.09,0,0,1-.1-.81l11-41a1,1,0,0,1,.13-.29L111.92,8.93a1.07,1.07,0,0,1,2,.49c1.78,25.93,11.09,47.7,27.68,64.72C175,108.44,227.29,112,227.81,112l.25,0a2.59,2.59,0,0,1,1.11.7c2.63,2.69,1.37,12-.91,19.59A52.13,52.13,0,0,1,223,144.58c-2.2,3.5-4.22,5-6,4.59-1.37-.12-15.72-1.46-34.76-7.83C163.8,135.19,137.09,123,114.32,99.6ZM92.54,67A152.44,152.44,0,0,0,115.86,98.1c43,44.08,100.79,48.89,101.37,48.94a.85.85,0,0,1,.23,0c.48.14,1.87-.71,3.71-3.65a49.89,49.89,0,0,0,5-11.69c2.7-8.93,2.85-16,1.43-17.47a.6.6,0,0,0-.12-.11c-3.39-.25-54.43-4.63-87.47-38.52C123.78,59,114.37,37.84,112,12.82l-8.63,13.83Z"/></g></svg>