<svg id="Layer_1" data-name="Layer 1" xmlns="http://www.w3.org/2000/svg" viewBox="0 0 280.31 279.38"><defs><style>.cls-1{opacity:0.17;}.cls-2{fill:#433f5d;}.cls-3{fill:#e5c7c1;}.cls-4{fill:#d46391;}.cls-5{fill:#ffe4f9;}</style></defs><title>pattern-2</title><g class="cls-1"><path class="cls-2" d="M65.27,261.51l1.7,1.92a.54.54,0,0,1,0,.75.52.52,0,0,1-.74-.05l-1.7-1.92a.51.51,0,0,1,0-.74A.53.53,0,0,1,65.27,261.51Z" transform="translate(-3.51 -3.94)"/><path class="cls-2" d="M135,29.34l-2.85,1.08a.63.63,0,1,1-.44-1.18l2.85-1.08a.63.63,0,1,1,.44,1.18Z" transform="translate(-3.51 -3.94)"/><path class="cls-2" d="M144.5,94.28l-2.22,1.83a.59.59,0,0,1-.84-.08.6.6,0,0,1,.08-.84l2.22-1.83a.6.6,0,0,1,.76.92Z" transform="translate(-3.51 -3.94)"/><path class="cls-2" d="M148.17,248.74l3.73,2.56a.93.93,0,1,1-1.05,1.54l-3.74-2.56a.93.93,0,0,1,1.06-1.54Z" transform="translate(-3.51 -3.94)"/><path class="cls-2" d="M41.43,60.39l4.19-5.53a1.44,1.44,0,0,1,2.29,1.73l-4.2,5.53a1.43,1.43,0,1,1-2.28-1.73Z" transform="translate(-3.51 -3.94)"/><path class="cls-2" d="M219.38,47.47l-1.81-2.62a.66.66,0,0,1,1.09-.75l1.81,2.63a.66.66,0,0,1-1.09.74Z" transform="translate(-3.51 -3.94)"/><path class="cls-2" d="M229.23,31.05l4.24-3.75A1.17,1.17,0,0,1,235,29.05l-4.24,3.76a1.17,1.17,0,1,1-1.55-1.76Z" transform="translate(-3.51 -3.94)"/><path class="cls-2" d="M127.47,101.77l-2.22,2.49a.69.69,0,0,1-1-.92l2.22-2.48a.69.69,0,1,1,1,.91Z" transform="translate(-3.51 -3.94)"/><path class="cls-2" d="M56,118.06l-2.39,6.87a1.5,1.5,0,1,1-2.84-1l2.39-6.87a1.5,1.5,0,1,1,2.84,1Z" transform="translate(-3.51 -3.94)"/><path class="cls-2" d="M56.33,83.07,50.92,79a1.4,1.4,0,0,1,1.69-2.23L58,80.83a1.4,1.4,0,0,1-1.69,2.24Z" transform="translate(-3.51 -3.94)"/><path class="cls-2" d="M37.81,184.1l-.66,4.64a1,1,0,1,1-1.91-.27l.66-4.64a1,1,0,1,1,1.91.27Z" transform="translate(-3.51 -3.94)"/><path class="cls-2" d="M253,111.65l3.31,6.14a1.44,1.44,0,1,1-2.53,1.36L250.43,113a1.44,1.44,0,0,1,2.54-1.37Z" transform="translate(-3.51 -3.94)"/><path class="cls-2" d="M233,133.75,227.29,138a1.48,1.48,0,1,1-1.76-2.37l5.73-4.28a1.48,1.48,0,0,1,1.77,2.37Z" transform="translate(-3.51 -3.94)"/><path class="cls-2" d="M249.64,50.41,245,52.56a1.07,1.07,0,0,1-.89-1.94l4.7-2.15a1.07,1.07,0,0,1,.88,1.94Z" transform="translate(-3.51 -3.94)"/><path class="cls-2" d="M174.38,148.42l-.41,9.66a2,2,0,0,1-4-.17l.41-9.66a2,2,0,0,1,4,.17Z" transform="translate(-3.51 -3.94)"/><path class="cls-2" d="M91.86,156.89l4.3-.23a.9.9,0,0,1,.94.85.88.88,0,0,1-.84.93l-4.31.23a.88.88,0,0,1-.93-.84A.89.89,0,0,1,91.86,156.89Z" transform="translate(-3.51 -3.94)"/><path class="cls-2" d="M201.83,33.17l-1.16,2.15a.5.5,0,1,1-.88-.48l1.15-2.14a.5.5,0,0,1,.89.47Z" transform="translate(-3.51 -3.94)"/><path class="cls-2" d="M254.65,28.65l6.9-1.89a1.48,1.48,0,1,1,.78,2.85l-6.9,1.89a1.48,1.48,0,0,1-.78-2.85Z" transform="translate(-3.51 -3.94)"/><path class="cls-2" d="M105.46,30.58l-1.53-4.52a1,1,0,0,1,1.87-.63L107.33,30a1,1,0,1,1-1.87.63Z" transform="translate(-3.51 -3.94)"/><path class="cls-2" d="M165.37,109l-5.77-4.11a1.46,1.46,0,0,1,1.7-2.38l5.77,4.11a1.46,1.46,0,1,1-1.7,2.38Z" transform="translate(-3.51 -3.94)"/><path class="cls-2" d="M131.77,132.23l3.33,3.06a.93.93,0,1,1-1.26,1.38l-3.33-3.07a.93.93,0,1,1,1.26-1.37Z" transform="translate(-3.51 -3.94)"/><path class="cls-2" d="M179.21,9l-.4-2.65a.56.56,0,0,1,1.1-.16l.39,2.65a.55.55,0,0,1-.47.62A.54.54,0,0,1,179.21,9Z" transform="translate(-3.51 -3.94)"/><path class="cls-2" d="M194.25,190.77l1.12-2.29a.54.54,0,0,1,.71-.24.53.53,0,0,1,.24.71l-1.12,2.29a.53.53,0,1,1-.95-.47Z" transform="translate(-3.51 -3.94)"/><path class="cls-2" d="M205.25,94.24l-5.59-2.33a1.25,1.25,0,1,1,1-2.31l5.59,2.33a1.25,1.25,0,1,1-1,2.31Z" transform="translate(-3.51 -3.94)"/><path class="cls-2" d="M95.92,104.08l.79,3.19a.68.68,0,0,1-1.32.33l-.79-3.19a.68.68,0,0,1,1.32-.33Z" transform="translate(-3.51 -3.94)"/><path class="cls-2" d="M168.59,183.29l7.7-1.35a1.61,1.61,0,0,1,1.87,1.31,1.63,1.63,0,0,1-1.31,1.87l-7.7,1.35a1.61,1.61,0,1,1-.56-3.18Z" transform="translate(-3.51 -3.94)"/><path class="cls-2" d="M220.4,236.33l8.7-3.31a1.92,1.92,0,0,1,1.36,3.59l-8.69,3.31a1.93,1.93,0,0,1-2.48-1.12A1.91,1.91,0,0,1,220.4,236.33Z" transform="translate(-3.51 -3.94)"/><path class="cls-2" d="M28.66,18.18,36.82,18a1.69,1.69,0,1,1,.1,3.37l-8.17.24a1.69,1.69,0,0,1-.09-3.38Z" transform="translate(-3.51 -3.94)"/><path class="cls-2" d="M191.76,76.38l-1.06-5.55A1.17,1.17,0,1,1,193,70.4l1,5.54a1.16,1.16,0,0,1-2.28.44Z" transform="translate(-3.51 -3.94)"/><path class="cls-2" d="M99.12,189.16l6.8-2.75a1.52,1.52,0,1,1,1.14,2.81L100.25,192a1.51,1.51,0,0,1-1.13-2.81Z" transform="translate(-3.51 -3.94)"/><path class="cls-2" d="M280.6,41.43l-5.62-1a1.18,1.18,0,1,1,.43-2.33l5.62,1a1.18,1.18,0,1,1-.43,2.32Z" transform="translate(-3.51 -3.94)"/><path class="cls-2" d="M83.45,234.83l-6.9,6.69a2,2,0,0,1-2.76-2.85l6.9-6.69a2,2,0,0,1,2.76,2.85Z" transform="translate(-3.51 -3.94)"/><path class="cls-2" d="M175.61,273.78,173.08,272a.64.64,0,1,1,.75-1l2.53,1.8a.65.65,0,1,1-.75,1Z" transform="translate(-3.51 -3.94)"/><path class="cls-2" d="M46.53,142.19l-3.67-2.06a.87.87,0,0,1,.85-1.51l3.67,2.06a.87.87,0,1,1-.85,1.51Z" transform="translate(-3.51 -3.94)"/><path class="cls-2" d="M225.86,270.49l6.67,6.91a2,2,0,1,1-2.86,2.75L223,273.24a2,2,0,0,1,2.85-2.75Z" transform="translate(-3.51 -3.94)"/><path class="cls-2" d="M181.38,92l-2.09,3A.76.76,0,0,1,178,94.1l2.09-3a.76.76,0,1,1,1.25.87Z" transform="translate(-3.51 -3.94)"/><path class="cls-2" d="M46.13,272.34l-2.23-1.83a.6.6,0,0,1,.76-.92l2.22,1.83a.59.59,0,0,1,.09.84A.6.6,0,0,1,46.13,272.34Z" transform="translate(-3.51 -3.94)"/><path class="cls-2" d="M263.1,92.82l-.85,3.38a.7.7,0,0,1-.87.52.71.71,0,0,1-.52-.87l.85-3.38a.72.72,0,0,1,1.39.35Z" transform="translate(-3.51 -3.94)"/><path class="cls-2" d="M162.5,202.89l1.44-2.59a.61.61,0,0,1,.83-.24.62.62,0,0,1,.24.83l-1.44,2.59a.62.62,0,0,1-.84.24A.61.61,0,0,1,162.5,202.89Z" transform="translate(-3.51 -3.94)"/><path class="cls-2" d="M119.51,261l-1.7,9.26a1.94,1.94,0,1,1-3.82-.7l1.7-9.26a1.94,1.94,0,0,1,3.82.7Z" transform="translate(-3.51 -3.94)"/><path class="cls-3" d="M272.74,151.87l2.44-.88a.53.53,0,1,1,.37,1l-2.44.89a.55.55,0,0,1-.69-.32A.54.54,0,0,1,272.74,151.87Z" transform="translate(-3.51 -3.94)"/><path class="cls-3" d="M15.59,221l-6.83,6.07a1.89,1.89,0,1,1-2.51-2.82l6.83-6.07A1.89,1.89,0,0,1,15.59,221Z" transform="translate(-3.51 -3.94)"/><path class="cls-3" d="M163.39,124.86l-.82,7.52a1.56,1.56,0,0,1-3.11-.34l.83-7.52a1.56,1.56,0,0,1,3.1.34Z" transform="translate(-3.51 -3.94)"/><path class="cls-3" d="M6.38,48.24l3.25,2.51a.85.85,0,0,1-1,1.35L5.34,49.58a.85.85,0,1,1,1-1.34Z" transform="translate(-3.51 -3.94)"/><path class="cls-3" d="M19.06,145l-2.48,8.54a1.84,1.84,0,1,1-3.53-1l2.48-8.54a1.84,1.84,0,1,1,3.53,1Z" transform="translate(-3.51 -3.94)"/><path class="cls-3" d="M55,234.84l3,1a.66.66,0,1,1-.43,1.24l-3-1a.65.65,0,0,1-.41-.84A.66.66,0,0,1,55,234.84Z" transform="translate(-3.51 -3.94)"/><path class="cls-3" d="M71.8,283.22l-4-1.22a.85.85,0,0,1,.51-1.63l4,1.22a.85.85,0,1,1-.5,1.63Z" transform="translate(-3.51 -3.94)"/><path class="cls-3" d="M202.68,277.77l-1.83,2.11a.58.58,0,1,1-.88-.76l1.84-2.11a.58.58,0,0,1,.82-.05A.57.57,0,0,1,202.68,277.77Z" transform="translate(-3.51 -3.94)"/><path class="cls-3" d="M7.26,78.53l1-2.66a.59.59,0,1,1,1.1.42L8.36,79a.59.59,0,1,1-1.1-.42Z" transform="translate(-3.51 -3.94)"/><path class="cls-3" d="M23,55.65l-.08,2.6a.53.53,0,0,1-.55.52.54.54,0,0,1-.52-.55l.08-2.6a.54.54,0,0,1,.55-.53A.54.54,0,0,1,23,55.65Z" transform="translate(-3.51 -3.94)"/><path class="cls-3" d="M230.9,9.74l-1.62,3.68a.83.83,0,0,1-1.1.42.82.82,0,0,1-.42-1.09l1.62-3.67a.83.83,0,1,1,1.52.66Z" transform="translate(-3.51 -3.94)"/><path class="cls-3" d="M225.53,114.08l4.35-1.3a.94.94,0,1,1,.54,1.8l-4.35,1.3a1,1,0,0,1-1.17-.64A.93.93,0,0,1,225.53,114.08Z" transform="translate(-3.51 -3.94)"/><path class="cls-3" d="M124.38,74.33l2.28.85a.52.52,0,0,1,.3.65.5.5,0,0,1-.65.29L124,75.27a.49.49,0,0,1-.3-.64A.51.51,0,0,1,124.38,74.33Z" transform="translate(-3.51 -3.94)"/><path class="cls-3" d="M5.18,166.76l3.25,3.4A1,1,0,0,1,7,171.5l-3.24-3.4a1,1,0,0,1,0-1.38A1,1,0,0,1,5.18,166.76Z" transform="translate(-3.51 -3.94)"/><path class="cls-3" d="M278.65,281l2.82-2.75a.81.81,0,0,1,1.14,0,.8.8,0,0,1,0,1.14l-2.81,2.75a.82.82,0,0,1-1.15,0A.81.81,0,0,1,278.65,281Z" transform="translate(-3.51 -3.94)"/><path class="cls-3" d="M240.48,179.37l3-.13a.63.63,0,0,1,.64.59.62.62,0,0,1-.59.64l-3,.13a.61.61,0,0,1-.64-.59A.62.62,0,0,1,240.48,179.37Z" transform="translate(-3.51 -3.94)"/><path class="cls-3" d="M206.89,211.71l3-1.41a.69.69,0,0,1,.91.33.7.7,0,0,1-.33.92l-3,1.4a.69.69,0,0,1-.91-.33A.68.68,0,0,1,206.89,211.71Z" transform="translate(-3.51 -3.94)"/><path class="cls-3" d="M30.73,97.67l6.53,2.27a1.42,1.42,0,1,1-.94,2.69l-6.53-2.26a1.43,1.43,0,0,1,.94-2.7Z" transform="translate(-3.51 -3.94)"/><path class="cls-3" d="M58.84,99.77l.37,3.61a.75.75,0,0,1-1.5.15l-.36-3.61a.75.75,0,1,1,1.49-.15Z" transform="translate(-3.51 -3.94)"/><path class="cls-3" d="M183.33,217.47l-2.4-1.14a.56.56,0,0,1-.26-.74.55.55,0,0,1,.73-.26l2.41,1.15a.55.55,0,1,1-.48,1Z" transform="translate(-3.51 -3.94)"/><path class="cls-3" d="M87.66,58.74l-6.47,1.35a1.36,1.36,0,1,1-.55-2.67l6.47-1.35a1.36,1.36,0,0,1,.55,2.67Z" transform="translate(-3.51 -3.94)"/><path class="cls-3" d="M9.64,103.34l4.58,7.28a1.78,1.78,0,0,1-3,1.89l-4.58-7.28a1.78,1.78,0,0,1,3-1.89Z" transform="translate(-3.51 -3.94)"/><path class="cls-3" d="M23.06,273l-2.26,8.92a1.9,1.9,0,0,1-3.69-.93L19.38,272a1.9,1.9,0,0,1,3.68.93Z" transform="translate(-3.51 -3.94)"/><path class="cls-3" d="M97.07,130.76l-4.72,2a1.06,1.06,0,0,1-.85-2l4.73-2a1.06,1.06,0,0,1,.84,1.95Z" transform="translate(-3.51 -3.94)"/><path class="cls-3" d="M18.49,198.35l2.12,3.39a.82.82,0,0,1-.26,1.14.84.84,0,0,1-1.14-.26l-2.12-3.39a.83.83,0,0,1,.26-1.14A.83.83,0,0,1,18.49,198.35Z" transform="translate(-3.51 -3.94)"/><path class="cls-3" d="M87.52,217.91l3.53-3.72a1.06,1.06,0,1,1,1.53,1.46l-3.52,3.71a1.06,1.06,0,0,1-1.54-1.45Z" transform="translate(-3.51 -3.94)"/><path class="cls-3" d="M72.55,128.79l-1.79-3.1a.74.74,0,0,1,.28-1,.72.72,0,0,1,1,.27l1.79,3.1a.73.73,0,0,1-.27,1A.75.75,0,0,1,72.55,128.79Z" transform="translate(-3.51 -3.94)"/><path class="cls-3" d="M66.19,51.44,58.38,50.1a1.64,1.64,0,0,1,.55-3.23l7.81,1.34a1.64,1.64,0,0,1-.55,3.23Z" transform="translate(-3.51 -3.94)"/><path class="cls-3" d="M272.15,68l-2-1.59a.52.52,0,0,1-.08-.74.53.53,0,0,1,.74-.07l2,1.6a.52.52,0,0,1,.07.73A.51.51,0,0,1,272.15,68Z" transform="translate(-3.51 -3.94)"/><path class="cls-3" d="M6,266.76l1,3.32a.72.72,0,1,1-1.37.41l-1-3.31a.71.71,0,0,1,.48-.89A.7.7,0,0,1,6,266.76Z" transform="translate(-3.51 -3.94)"/><path class="cls-3" d="M228.16,157.65l-1.36-2.79a.63.63,0,0,1,.29-.85.64.64,0,0,1,.86.29l1.36,2.79a.64.64,0,1,1-1.15.56Z" transform="translate(-3.51 -3.94)"/><path class="cls-3" d="M77.53,78.64l-5.69-5.72a1.67,1.67,0,1,1,2.36-2.35l5.69,5.72a1.67,1.67,0,1,1-2.36,2.35Z" transform="translate(-3.51 -3.94)"/><path class="cls-3" d="M190.47,48.64l1.88,6.23a1.34,1.34,0,0,1-2.57.77l-1.88-6.22a1.33,1.33,0,0,1,.89-1.67A1.34,1.34,0,0,1,190.47,48.64Z" transform="translate(-3.51 -3.94)"/><path class="cls-3" d="M19.13,173.2,22.44,172a.73.73,0,1,1,.51,1.36l-3.31,1.24a.72.72,0,0,1-.93-.43A.73.73,0,0,1,19.13,173.2Z" transform="translate(-3.51 -3.94)"/><path class="cls-3" d="M244.88,95.22,239,101.29a1.74,1.74,0,1,1-2.51-2.42l5.87-6.08a1.74,1.74,0,0,1,2.46,0A1.76,1.76,0,0,1,244.88,95.22Z" transform="translate(-3.51 -3.94)"/><path class="cls-3" d="M121.25,168l3.93-2.67a1,1,0,1,1,1.11,1.62l-3.93,2.68a1,1,0,0,1-1.11-1.63Z" transform="translate(-3.51 -3.94)"/><path class="cls-3" d="M254.54,201l1.34-5.76a1.21,1.21,0,0,1,1.46-.91,1.22,1.22,0,0,1,.92,1.46l-1.34,5.76a1.23,1.23,0,0,1-1.47.92A1.22,1.22,0,0,1,254.54,201Z" transform="translate(-3.51 -3.94)"/><path class="cls-3" d="M242.83,215.53l-1.57,8.06a1.7,1.7,0,0,1-3.33-.65l1.57-8.06a1.7,1.7,0,1,1,3.33.65Z" transform="translate(-3.51 -3.94)"/><path class="cls-3" d="M80.35,36.07l-2-2a.57.57,0,0,1,0-.81.58.58,0,0,1,.82,0l2,2a.58.58,0,1,1-.81.82Z" transform="translate(-3.51 -3.94)"/><path class="cls-3" d="M72.79,167.47l7-.3a1.45,1.45,0,1,1,.13,2.89l-7,.31a1.45,1.45,0,0,1-.13-2.9Z" transform="translate(-3.51 -3.94)"/><path class="cls-4" d="M12.12,245.79l.51,6a1.23,1.23,0,1,1-2.46.21l-.51-6a1.23,1.23,0,1,1,2.46-.21Z" transform="translate(-3.51 -3.94)"/><path class="cls-4" d="M235.73,260.3l-.15-3.74a.78.78,0,1,1,1.55-.06l.15,3.74a.78.78,0,0,1-1.55.06Z" transform="translate(-3.51 -3.94)"/><path class="cls-4" d="M25.68,6.22,22,7.79a.84.84,0,0,1-1.1-.45.83.83,0,0,1,.45-1.09L25,4.68a.84.84,0,1,1,.65,1.54Z" transform="translate(-3.51 -3.94)"/><path class="cls-4" d="M278.58,92.83l2.63.44a.56.56,0,0,1,.45.64.55.55,0,0,1-.63.45l-2.63-.45a.55.55,0,1,1,.18-1.08Z" transform="translate(-3.51 -3.94)"/><path class="cls-4" d="M245,157.34l6.47-3a1.48,1.48,0,1,1,1.25,2.68l-6.48,3a1.48,1.48,0,1,1-1.24-2.68Z" transform="translate(-3.51 -3.94)"/><path class="cls-4" d="M83.82,189.34l-4.38.17a.91.91,0,1,1-.07-1.81l4.38-.17a.91.91,0,0,1,.07,1.81Z" transform="translate(-3.51 -3.94)"/><path class="cls-4" d="M277.38,117.29,274,119a.78.78,0,0,1-1.05-.33.76.76,0,0,1,.33-1l3.34-1.75a.78.78,0,0,1,1,.33A.79.79,0,0,1,277.38,117.29Z" transform="translate(-3.51 -3.94)"/><path class="cls-4" d="M202.21,234.59l-2.2-1.65a.56.56,0,0,1,.68-.9l2.2,1.64a.57.57,0,0,1,.11.8A.56.56,0,0,1,202.21,234.59Z" transform="translate(-3.51 -3.94)"/><path class="cls-4" d="M218.88,187.42l.14,7.12a1.47,1.47,0,0,1-2.94.06l-.14-7.12a1.47,1.47,0,1,1,2.94-.06Z" transform="translate(-3.51 -3.94)"/><path class="cls-4" d="M143.14,9.67l-.58-2.53a.53.53,0,0,1,1-.24l.59,2.53a.55.55,0,0,1-.4.64A.54.54,0,0,1,143.14,9.67Z" transform="translate(-3.51 -3.94)"/><path class="cls-4" d="M205.62,10.3l-4.56,7.17a1.75,1.75,0,1,1-3-1.87l4.55-7.18a1.76,1.76,0,0,1,3,1.88Z" transform="translate(-3.51 -3.94)"/><path class="cls-4" d="M186.78,136.79l2.28-1.21a.54.54,0,0,1,.72.21.54.54,0,0,1-.22.73l-2.28,1.22a.53.53,0,0,1-.72-.22A.54.54,0,0,1,186.78,136.79Z" transform="translate(-3.51 -3.94)"/><path class="cls-4" d="M141.65,69.61l6.09-.81a1.27,1.27,0,0,1,.33,2.52l-6.09.81a1.27,1.27,0,1,1-.33-2.52Z" transform="translate(-3.51 -3.94)"/><path class="cls-4" d="M178,121.2l2.35-3.48a.87.87,0,1,1,1.44,1l-2.35,3.48a.87.87,0,0,1-1.44-1Z" transform="translate(-3.51 -3.94)"/><path class="cls-4" d="M140.92,119l3.34-5.19a1.27,1.27,0,0,1,2.14,1.38l-3.34,5.19a1.27,1.27,0,1,1-2.14-1.38Z" transform="translate(-3.51 -3.94)"/><path class="cls-4" d="M88.23,271.17l1.27,2.52a.58.58,0,1,1-1,.53l-1.27-2.53a.58.58,0,0,1,.26-.78A.57.57,0,0,1,88.23,271.17Z" transform="translate(-3.51 -3.94)"/><path class="cls-4" d="M216,168.15l-2.12,4.37a1,1,0,0,1-1.81-.88l2.13-4.37a1,1,0,0,1,1.8.88Z" transform="translate(-3.51 -3.94)"/><path class="cls-4" d="M154.36,268.86l-7.1,5.84a1.9,1.9,0,0,1-2.41-2.94l7.1-5.83a1.9,1.9,0,1,1,2.41,2.93Z" transform="translate(-3.51 -3.94)"/><path class="cls-4" d="M30.48,122.48l3.73.1a.77.77,0,0,1,.75.8.76.76,0,0,1-.79.74l-3.73-.1a.77.77,0,0,1,0-1.54Z" transform="translate(-3.51 -3.94)"/><path class="cls-4" d="M259.44,131l.22,7.51a1.55,1.55,0,1,1-3.1.09l-.23-7.51a1.56,1.56,0,0,1,3.11-.09Z" transform="translate(-3.51 -3.94)"/><path class="cls-4" d="M41.41,158.21l-9.29,1.62a1.94,1.94,0,1,1-.67-3.83l9.29-1.62a1.94,1.94,0,1,1,.67,3.83Z" transform="translate(-3.51 -3.94)"/><path class="cls-4" d="M99.75,71.48l1.14-2.21a.52.52,0,0,1,.7-.23.53.53,0,0,1,.22.7L100.67,72a.52.52,0,0,1-.92-.48Z" transform="translate(-3.51 -3.94)"/><path class="cls-4" d="M46.32,213l-2.8,2.87a.82.82,0,0,1-1.17,0,.83.83,0,0,1,0-1.17l2.79-2.88a.82.82,0,0,1,1.17,0A.84.84,0,0,1,46.32,213Z" transform="translate(-3.51 -3.94)"/><path class="cls-4" d="M7.8,5.24l-1,5.26a1.1,1.1,0,0,1-2.17-.39l1-5.26a1.1,1.1,0,1,1,2.17.39Z" transform="translate(-3.51 -3.94)"/><path class="cls-4" d="M31.68,256.93l-1.86-2.49a.64.64,0,0,1,.13-.9.65.65,0,0,1,.9.13l1.86,2.49a.64.64,0,0,1-1,.77Z" transform="translate(-3.51 -3.94)"/><path class="cls-4" d="M212,136.5l-5.69,4.35a1.48,1.48,0,0,1-1.8-2.35l5.69-4.35a1.48,1.48,0,0,1,1.8,2.35Z" transform="translate(-3.51 -3.94)"/><path class="cls-4" d="M111.36,280.13,105.64,283a1.32,1.32,0,1,1-1.18-2.36l5.72-2.86a1.32,1.32,0,0,1,1.18,2.36Z" transform="translate(-3.51 -3.94)"/><path class="cls-4" d="M94,254.36l-2.57-.31a.52.52,0,0,1-.46-.59.54.54,0,0,1,.59-.47l2.56.31a.53.53,0,0,1,.47.59A.54.54,0,0,1,94,254.36Z" transform="translate(-3.51 -3.94)"/><path class="cls-4" d="M271.55,214.71l2.87-1.5a.67.67,0,1,1,.62,1.18l-2.86,1.51a.67.67,0,0,1-.63-1.19Z" transform="translate(-3.51 -3.94)"/><path class="cls-4" d="M173.77,241.41l-1.05,2.26a.51.51,0,1,1-.93-.43l1-2.26a.52.52,0,0,1,.69-.25A.51.51,0,0,1,173.77,241.41Z" transform="translate(-3.51 -3.94)"/><path class="cls-4" d="M198.75,255l4.36,0a.9.9,0,0,1,0,1.8l-4.35,0a.9.9,0,1,1,0-1.8Z" transform="translate(-3.51 -3.94)"/><path class="cls-4" d="M281.58,171.34l-.09-2.72A.57.57,0,0,1,282,168a.56.56,0,0,1,.58.54l.09,2.72a.55.55,0,0,1-.54.58A.56.56,0,0,1,281.58,171.34Z" transform="translate(-3.51 -3.94)"/><path class="cls-4" d="M32.09,236,28,235.29a.86.86,0,0,1-.69-1,.85.85,0,0,1,1-.7l4.07.73a.85.85,0,1,1-.3,1.68Z" transform="translate(-3.51 -3.94)"/><path class="cls-4" d="M283.52,133.39l-4,4.8a1.29,1.29,0,1,1-2-1.65l4-4.8a1.29,1.29,0,0,1,2,1.65Z" transform="translate(-3.51 -3.94)"/><path class="cls-4" d="M259.62,258.13l-4.25.93a.9.9,0,0,1-.39-1.76l4.26-.93a.9.9,0,1,1,.38,1.76Z" transform="translate(-3.51 -3.94)"/><path class="cls-4" d="M155.14,217.85l-8.21,1.83a1.74,1.74,0,1,1-.75-3.39l8.2-1.83a1.74,1.74,0,0,1,.76,3.39Z" transform="translate(-3.51 -3.94)"/><path class="cls-4" d="M186.74,171.11l-2.67.83a.59.59,0,0,1-.72-.38.58.58,0,0,1,.38-.72l2.66-.83a.56.56,0,0,1,.72.38A.57.57,0,0,1,186.74,171.11Z" transform="translate(-3.51 -3.94)"/><path class="cls-4" d="M155.09,31.35l1,3.4a.74.74,0,0,1-1.41.42l-1-3.41a.73.73,0,1,1,1.41-.41Z" transform="translate(-3.51 -3.94)"/><path class="cls-4" d="M154.41,151.59,147.67,154a1.47,1.47,0,0,1-1.89-.88,1.49,1.49,0,0,1,.88-1.9l6.74-2.44a1.48,1.48,0,1,1,1,2.78Z" transform="translate(-3.51 -3.94)"/><path class="cls-4" d="M114.11,12.34l5.53-6.27a1.73,1.73,0,1,1,2.59,2.28l-5.52,6.27a1.73,1.73,0,1,1-2.6-2.28Z" transform="translate(-3.51 -3.94)"/><path class="cls-5" d="M135.83,280.13l-2.64-.06a.55.55,0,0,1,0-1.09l2.63.06a.55.55,0,0,1,.53.56A.53.53,0,0,1,135.83,280.13Z" transform="translate(-3.51 -3.94)"/><path class="cls-5" d="M120,245.51l6.82-1.55a1.45,1.45,0,0,1,.65,2.82l-6.83,1.55a1.45,1.45,0,0,1-.64-2.82Z" transform="translate(-3.51 -3.94)"/><path class="cls-5" d="M10.9,132.11l1.68-2.3a.59.59,0,1,1,.95.7l-1.68,2.3a.59.59,0,1,1-.95-.7Z" transform="translate(-3.51 -3.94)"/><path class="cls-5" d="M87.9,11.7,86.56,9.26a.59.59,0,0,1,.23-.79.57.57,0,0,1,.78.23l1.34,2.45a.58.58,0,1,1-1,.55Z" transform="translate(-3.51 -3.94)"/><path class="cls-5" d="M123.11,48.16l-.8,9.55a2,2,0,0,1-4-.33l.8-9.55a2,2,0,1,1,4,.33Z" transform="translate(-3.51 -3.94)"/><path class="cls-5" d="M167.81,13.93l-7.1,5.58a1.86,1.86,0,0,1-2.3-2.93L165.5,11a1.87,1.87,0,0,1,2.31,2.93Z" transform="translate(-3.51 -3.94)"/><path class="cls-5" d="M26.78,77.3l1.38,2.83a.65.65,0,0,1-.3.87.66.66,0,0,1-.87-.3l-1.38-2.83a.64.64,0,0,1,.3-.87A.65.65,0,0,1,26.78,77.3Z" transform="translate(-3.51 -3.94)"/><path class="cls-5" d="M133.42,191.94l-2.71,6.36a1.43,1.43,0,0,1-2.63-1.12l2.72-6.36a1.42,1.42,0,1,1,2.62,1.12Z" transform="translate(-3.51 -3.94)"/><path class="cls-5" d="M101,47.12l-.26,2.58a.53.53,0,0,1-.59.48.54.54,0,0,1-.48-.59L99.94,47a.53.53,0,0,1,.59-.48A.54.54,0,0,1,101,47.12Z" transform="translate(-3.51 -3.94)"/><path class="cls-5" d="M149.52,174.29l5.07,6.48a1.7,1.7,0,0,1-2.68,2.09l-5.06-6.48a1.7,1.7,0,1,1,2.67-2.09Z" transform="translate(-3.51 -3.94)"/><path class="cls-5" d="M279.87,240.53l-5.78-1.44a1.23,1.23,0,1,1,.59-2.39l5.78,1.44a1.23,1.23,0,1,1-.59,2.39Z" transform="translate(-3.51 -3.94)"/><path class="cls-5" d="M65.89,154.83l-5.19-4a1.35,1.35,0,1,1,1.64-2.14l5.19,4a1.35,1.35,0,0,1-1.64,2.15Z" transform="translate(-3.51 -3.94)"/><path class="cls-5" d="M115.46,147.45l-.86-2.5a.55.55,0,0,1,.34-.7.56.56,0,0,1,.69.34l.86,2.51a.55.55,0,0,1-.34.69A.53.53,0,0,1,115.46,147.45Z" transform="translate(-3.51 -3.94)"/><path class="cls-5" d="M199.43,110.79l1.55,2a.53.53,0,0,1-.84.64l-1.55-2a.54.54,0,0,1,.1-.74A.53.53,0,0,1,199.43,110.79Z" transform="translate(-3.51 -3.94)"/><path class="cls-5" d="M55.41,17.9l5.1-7.7a1.91,1.91,0,1,1,3.18,2.1L58.6,20a1.91,1.91,0,1,1-3.19-2.11Z" transform="translate(-3.51 -3.94)"/><path class="cls-5" d="M161.23,85.08l-2.89-.62a.61.61,0,0,1,.25-1.19l2.9.61a.61.61,0,1,1-.26,1.2Z" transform="translate(-3.51 -3.94)"/><path class="cls-5" d="M67.37,201.54l2,6.71a1.45,1.45,0,1,1-2.78.84l-2-6.72a1.45,1.45,0,0,1,2.77-.83Z" transform="translate(-3.51 -3.94)"/><path class="cls-5" d="M257.84,276.33l7.37-2.22a1.59,1.59,0,1,1,.92,3l-7.37,2.23a1.59,1.59,0,0,1-.92-3.05Z" transform="translate(-3.51 -3.94)"/><path class="cls-5" d="M225.19,92.37l-7.62-4.86a1.86,1.86,0,0,1,2-3.14l7.61,4.86a1.86,1.86,0,0,1-2,3.14Z" transform="translate(-3.51 -3.94)"/><path class="cls-5" d="M198.75,158.72l-5.28-2.9a1.24,1.24,0,0,1,1.2-2.18l5.27,2.9a1.24,1.24,0,0,1-1.19,2.18Z" transform="translate(-3.51 -3.94)"/><path class="cls-5" d="M115.28,117.57l.84,3.06a.65.65,0,0,1-.45.81.67.67,0,0,1-.81-.46l-.84-3.06a.64.64,0,0,1,.45-.8A.65.65,0,0,1,115.28,117.57Z" transform="translate(-3.51 -3.94)"/><path class="cls-5" d="M105.88,232.35l2.58,7a1.53,1.53,0,1,1-2.87,1.07l-2.58-7a1.53,1.53,0,1,1,2.87-1.06Z" transform="translate(-3.51 -3.94)"/><path class="cls-5" d="M115.09,212.44l3.44,1.94a.82.82,0,0,1-.8,1.43l-3.45-1.94a.82.82,0,1,1,.81-1.43Z" transform="translate(-3.51 -3.94)"/><path class="cls-5" d="M81.07,95,79,97.39a.66.66,0,1,1-1-.86l2.08-2.42A.67.67,0,0,1,81,94,.65.65,0,0,1,81.07,95Z" transform="translate(-3.51 -3.94)"/><path class="cls-5" d="M213,67.21,216.39,65a.85.85,0,0,1,1.17.25.84.84,0,0,1-.25,1.17l-3.44,2.23a.85.85,0,0,1-1.17-.25A.84.84,0,0,1,213,67.21Z" transform="translate(-3.51 -3.94)"/><path class="cls-5" d="M233.45,203.49l-1.34-6.24a1.31,1.31,0,1,1,2.57-.55l1.35,6.23a1.32,1.32,0,0,1-2.58.56Z" transform="translate(-3.51 -3.94)"/><path class="cls-5" d="M251.21,236.15l6.49-2.31a1.42,1.42,0,1,1,1,2.68l-6.49,2.32a1.43,1.43,0,0,1-1-2.69Z" transform="translate(-3.51 -3.94)"/><path class="cls-5" d="M267.87,173.15l-4.92-.84a1,1,0,1,1,.35-2l4.92.84a1,1,0,0,1-.35,2Z" transform="translate(-3.51 -3.94)"/><path class="cls-5" d="M175.38,34.37l3.28-5.2a1.27,1.27,0,1,1,2.15,1.35l-3.27,5.2a1.27,1.27,0,0,1-2.16-1.35Z" transform="translate(-3.51 -3.94)"/><path class="cls-5" d="M147.94,54.64l1.25-6.32a1.33,1.33,0,0,1,2.61.52l-1.25,6.32A1.35,1.35,0,0,1,149,56.21,1.33,1.33,0,0,1,147.94,54.64Z" transform="translate(-3.51 -3.94)"/><path class="cls-5" d="M278.32,258.75l.63,2.49a.53.53,0,0,1-.38.64.53.53,0,0,1-.65-.38l-.63-2.49a.54.54,0,0,1,.39-.65A.53.53,0,0,1,278.32,258.75Z" transform="translate(-3.51 -3.94)"/><path class="cls-5" d="M248.09,74.47l-8.57,1.2a1.79,1.79,0,0,1-.5-3.55l8.58-1.2a1.79,1.79,0,0,1,.49,3.55Z" transform="translate(-3.51 -3.94)"/><path class="cls-5" d="M270.71,9.71l-5.27,4.21a1.4,1.4,0,1,1-1.75-2.18L269,7.53a1.39,1.39,0,0,1,1.74,2.18Z" transform="translate(-3.51 -3.94)"/><path class="cls-5" d="M54.15,177.77l2.58,1.32a.59.59,0,0,1-.54,1.06l-2.58-1.32a.6.6,0,0,1-.26-.8A.59.59,0,0,1,54.15,177.77Z" transform="translate(-3.51 -3.94)"/><path class="cls-5" d="M169,65.69l4.1-3.39a1.1,1.1,0,0,1,1.4,1.7l-4.11,3.38A1.09,1.09,0,1,1,169,65.69Z" transform="translate(-3.51 -3.94)"/><path class="cls-5" d="M35.77,39.78l-5.21.53a1.08,1.08,0,0,1-.22-2.15l5.21-.53a1.08,1.08,0,0,1,.22,2.15Z" transform="translate(-3.51 -3.94)"/><path class="cls-5" d="M278.42,189.89,276,191.27a.57.57,0,0,1-.78-.2.58.58,0,0,1,.21-.78l2.38-1.38a.57.57,0,1,1,.57,1Z" transform="translate(-3.51 -3.94)"/><path class="cls-5" d="M137.11,236.38l1.49-8.26a1.73,1.73,0,0,1,3.41.61L140.52,237a1.73,1.73,0,1,1-3.41-.62Z" transform="translate(-3.51 -3.94)"/><path class="cls-5" d="M12.06,24.7,8.79,29A1.11,1.11,0,1,1,7,27.6l3.28-4.25a1.11,1.11,0,1,1,1.75,1.35Z" transform="translate(-3.51 -3.94)"/><path class="cls-5" d="M108.49,88.2l2.32,1.7a.58.58,0,0,1,.13.83.6.6,0,0,1-.83.13l-2.32-1.7a.59.59,0,1,1,.7-1Z" transform="translate(-3.51 -3.94)"/></g></svg>