<svg xmlns="http://www.w3.org/2000/svg" viewBox="0 0 750.59 749.94"><defs><style>.cls-1{opacity:0.15;}.cls-2,.cls-3{fill:none;stroke-linecap:round;stroke-linejoin:round;stroke-width:2px;}.cls-2{stroke:#d8d9da;}.cls-3{stroke:#000;}.cls-4{fill:#fae394;}.cls-5{fill:#f6977c;}.cls-6{fill:#90dfb1;}.cls-7{fill-rule:evenodd;}</style></defs><title>pattern3</title><g id="Layer_2" data-name="Layer 2"><g class="cls-1"><line class="cls-2" x1="295.1" y1="248.29" x2="392.89" y2="248.29"/><line class="cls-2" x1="354.47" y1="270.61" x2="417.49" y2="270.61"/><line class="cls-2" x1="686.57" y1="248.29" x2="749.59" y2="248.29"/><line class="cls-2" x1="658.27" y1="277.99" x2="721.29" y2="277.99"/><line class="cls-2" x1="513.28" y1="530.82" x2="615.39" y2="530.82"/><line class="cls-2" x1="298.88" y1="587.67" x2="400.99" y2="587.67"/><line class="cls-2" x1="341.84" y1="619.49" x2="443.94" y2="619.49"/><line class="cls-2" x1="35.6" y1="543.06" x2="137.71" y2="543.06"/><polyline class="cls-2" points="554.61 481.46 537.6 469.46 520.59 481.46 503.57 469.46 486.55 481.46 469.53 469.46 452.51 481.46"/><polyline class="cls-2" points="186.91 471.55 169.9 459.55 152.89 471.55 135.87 459.55 118.85 471.55 101.83 459.55 84.81 471.55"/><polyline class="cls-2" points="400.99 363.14 383.97 351.14 366.96 363.14 349.94 351.14 332.93 363.14 315.9 351.14 298.88 363.14"/><polyline class="cls-2" points="658.27 180.44 641.25 168.44 624.24 180.44 607.22 168.44 590.2 180.44 573.18 168.44 556.16 180.44"/><polyline class="cls-2" points="119.05 172.09 102.03 160.09 85.02 172.09 68 160.09 50.98 172.09 33.96 160.09 16.94 172.09"/><polyline class="cls-2" points="395.05 57.31 378.03 45.31 361.02 57.31 344 45.31 326.98 57.31 309.96 45.31 292.94 57.31"/><polyline class="cls-2" points="219.51 686.33 202.49 674.33 185.48 686.33 168.46 674.33 151.44 686.33 134.42 674.33 117.4 686.33"/><polyline class="cls-2" points="709.32 734.61 692.3 722.61 675.29 734.61 658.27 722.61 641.26 734.61 624.24 722.61 607.21 734.61"/><line class="cls-2" x1="509.42" y1="395.73" x2="607.21" y2="395.73"/><line class="cls-2" x1="568.79" y1="418.05" x2="631.81" y2="418.05"/><line class="cls-2" x1="618.53" y1="649.74" x2="716.32" y2="649.74"/><line class="cls-2" x1="677.9" y1="672.05" x2="740.92" y2="672.05"/><line class="cls-2" x1="94.53" y1="95.93" x2="192.32" y2="95.93"/><line class="cls-2" x1="153.9" y1="118.25" x2="216.92" y2="118.25"/><line class="cls-2" x1="135.86" y1="312.54" x2="201.66" y2="312.54"/><line class="cls-2" x1="626.1" y1="1" x2="723.89" y2="1"/><line class="cls-2" x1="685.47" y1="23.32" x2="748.49" y2="23.32"/><line class="cls-2" x1="446.11" y1="107.09" x2="511.91" y2="107.09"/><line class="cls-3" x1="282.08" y1="256.89" x2="379.87" y2="256.89"/><line class="cls-3" x1="341.45" y1="279.2" x2="404.46" y2="279.2"/><line class="cls-3" x1="673.55" y1="256.89" x2="736.57" y2="256.89"/><line class="cls-3" x1="645.24" y1="286.59" x2="708.26" y2="286.59"/><line class="cls-3" x1="500.26" y1="539.41" x2="602.36" y2="539.41"/><line class="cls-3" x1="285.86" y1="596.27" x2="387.97" y2="596.27"/><line class="cls-3" x1="328.81" y1="628.09" x2="430.92" y2="628.09"/><line class="cls-3" x1="22.58" y1="551.66" x2="124.69" y2="551.66"/><polyline class="cls-3" points="541.59 490.06 524.57 478.06 507.56 490.06 490.55 478.06 473.53 490.06 456.5 478.06 439.48 490.06"/><polyline class="cls-3" points="173.89 480.15 156.88 468.15 139.86 480.15 122.85 468.15 105.83 480.15 88.81 468.15 71.79 480.15"/><polyline class="cls-3" points="387.97 371.74 370.95 359.74 353.94 371.74 336.92 359.74 319.9 371.74 302.88 359.74 285.86 371.74"/><polyline class="cls-3" points="645.25 189.04 628.23 177.04 611.22 189.04 594.2 177.04 577.18 189.04 560.16 177.04 543.14 189.04"/><polyline class="cls-3" points="106.02 180.69 89.01 168.69 72 180.69 54.98 168.69 37.96 180.69 20.94 168.69 3.92 180.69"/><polyline class="cls-3" points="382.02 65.91 365.01 53.91 348 65.91 330.98 53.91 313.96 65.91 296.94 53.91 279.92 65.91"/><polyline class="cls-3" points="206.48 694.93 189.47 682.93 172.46 694.93 155.44 682.93 138.42 694.93 121.4 682.93 104.38 694.93"/><polyline class="cls-3" points="696.3 743.21 679.28 731.21 662.27 743.21 645.25 731.21 628.23 743.21 611.21 731.21 594.19 743.21"/><line class="cls-3" x1="496.4" y1="404.33" x2="594.19" y2="404.33"/><line class="cls-3" x1="555.77" y1="426.64" x2="618.79" y2="426.64"/><line class="cls-3" x1="605.5" y1="658.34" x2="703.29" y2="658.34"/><line class="cls-3" x1="664.87" y1="680.65" x2="727.89" y2="680.65"/><line class="cls-3" x1="81.5" y1="104.53" x2="179.29" y2="104.53"/><line class="cls-3" x1="140.87" y1="126.84" x2="203.89" y2="126.84"/><line class="cls-3" x1="122.84" y1="321.14" x2="188.64" y2="321.14"/><line class="cls-3" x1="613.07" y1="9.6" x2="710.86" y2="9.6"/><line class="cls-3" x1="672.44" y1="31.91" x2="735.46" y2="31.91"/><line class="cls-3" x1="433.08" y1="115.69" x2="498.88" y2="115.69"/><polygon class="cls-4" points="577.43 318.25 613.17 334.86 609.69 295.6 577.43 318.25"/><polygon class="cls-5" points="65.02 380.1 100.76 396.71 97.28 357.46 65.02 380.1"/><polygon class="cls-5" points="593.54 78.35 610.71 113.81 632.84 81.2 593.54 78.35"/><polygon class="cls-6" points="15.05 17.33 32.23 52.8 54.36 20.18 15.05 17.33"/><polygon class="cls-4" points="48.56 615.78 65.74 651.25 87.87 618.64 48.56 615.78"/><polygon class="cls-5" points="353 706.39 370.18 741.86 392.3 709.25 353 706.39"/><polygon class="cls-3" points="563.38 325.33 599.12 341.94 595.63 302.69 563.38 325.33"/><polygon class="cls-3" points="50.97 387.18 86.7 403.79 83.22 364.54 50.97 387.18"/><polygon class="cls-3" points="579.49 85.43 596.66 120.9 618.79 88.29 579.49 85.43"/><polygon class="cls-3" points="1 24.41 18.18 59.88 40.31 27.27 1 24.41"/><polygon class="cls-3" points="34.51 622.87 51.69 658.34 73.82 625.73 34.51 622.87"/><polygon class="cls-3" points="338.95 713.48 356.12 748.94 378.25 716.33 338.95 713.48"/><circle class="cls-6" cx="646.89" cy="481.71" r="15.91"/><circle class="cls-4" cx="332.44" cy="534.58" r="15.91" transform="translate(-304.43 715.21) rotate(-76.81)"/><circle class="cls-4" cx="352.13" cy="187.38" r="15.91" transform="translate(-69.89 282.83) rotate(-45)"/><circle class="cls-5" cx="489.84" cy="370.87" r="15.91" transform="translate(-23.55 742.11) rotate(-76.81)"/><circle class="cls-5" cx="598.95" cy="624.87" r="15.91" transform="matrix(0.92, -0.39, 0.39, 0.92, -235.47, 258.94)"/><circle class="cls-5" cx="254.25" cy="38.93" r="15.91" transform="translate(117.8 256.54) rotate(-76.81)"/><circle class="cls-6" cx="718.24" cy="134.51" r="15.91"/><circle class="cls-3" cx="677.59" cy="511.11" r="15.91" transform="translate(-16.93 1031.04) rotate(-76.62)"/><circle class="cls-3" cx="282.08" cy="521.89" r="15.91"/><circle class="cls-3" cx="342.3" cy="195.73" r="15.91" transform="translate(32.17 462.42) rotate(-76.62)"/><circle class="cls-3" cx="439.48" cy="358.17" r="15.91"/><circle class="cls-3" cx="548.59" cy="612.18" r="15.91"/><circle class="cls-3" cx="203.89" cy="26.23" r="15.91"/><circle class="cls-3" cx="748.94" cy="163.91" r="15.91" transform="translate(62.93 556.54) rotate(-45)"/><path d="M748.44,172.47a1.28,1.28,0,0,1-.91-.37L741.28,166a1.31,1.31,0,0,1,1.83-1.87l5.36,5.25,18.17-16.64a1.3,1.3,0,1,1,1.76,1.92l-19.08,17.48a1.28,1.28,0,0,1-.88.34Z" transform="translate(-40.53 -21.05)"/><line class="cls-3" x1="432.68" y1="351.37" x2="446.47" y2="365.16"/><line class="cls-3" x1="446.47" y1="351.37" x2="432.68" y2="365.16"/><line class="cls-3" x1="541.69" y1="605.28" x2="555.48" y2="619.07"/><line class="cls-3" x1="555.48" y1="605.28" x2="541.69" y2="619.07"/><path d="M677.36,520.1a1.29,1.29,0,0,1-.91-.38l-6.25-6.11a1.3,1.3,0,1,1,1.82-1.86l5.36,5.24,18.18-16.64a1.3,1.3,0,1,1,1.76,1.92l-19.08,17.48a1.31,1.31,0,0,1-.88.35Z" transform="translate(-40.53 -21.05)"/><line class="cls-3" x1="196.94" y1="19.88" x2="210.72" y2="33.67"/><line class="cls-3" x1="210.72" y1="19.88" x2="196.94" y2="33.67"/><path class="cls-7" d="M342.29,186.76a.94.94,0,0,1,.28.67v11.43a.92.92,0,0,1-.28.67,1,1,0,0,1-1.63-.67V187.43a1,1,0,0,1,.28-.67A1,1,0,0,1,342.29,186.76Z" transform="translate(-40.53 -21.05)"/><path class="cls-7" d="M342.29,202a.94.94,0,0,1,.28.67v1.9a1,1,0,0,1-1.63.68,1,1,0,0,1-.28-.68v-1.9a1,1,0,0,1,.28-.67A1,1,0,0,1,342.29,202Z" transform="translate(-40.53 -21.05)"/><path class="cls-7" d="M323.28,533.69a.94.94,0,0,1,.28.67v11.43a.92.92,0,0,1-.28.67,1,1,0,0,1-1.63-.67V534.36a1,1,0,0,1,.28-.67A1,1,0,0,1,323.28,533.69Z" transform="translate(-40.53 -21.05)"/><path class="cls-7" d="M323.28,548.93a.94.94,0,0,1,.28.67v1.9a.92.92,0,0,1-.28.67.94.94,0,0,1-1.35,0,1,1,0,0,1-.28-.67v-1.9a1,1,0,0,1,.28-.67A1,1,0,0,1,323.28,548.93Z" transform="translate(-40.53 -21.05)"/><circle class="cls-6" cx="168.47" cy="232.8" r="15.91"/><circle class="cls-3" cx="199.86" cy="262.02" r="15.91" transform="translate(-167.27 197.02) rotate(-45)"/><path d="M198.31,270.59a1.32,1.32,0,0,1-.91-.37l-6.25-6.12a1.3,1.3,0,0,1,1.82-1.86l5.37,5.25,18.17-16.65a1.31,1.31,0,0,1,1.76,1.93l-19.08,17.47a1.31,1.31,0,0,1-.88.35Z" transform="translate(-40.53 -21.05)"/></g></g></svg>
