<svg xmlns="http://www.w3.org/2000/svg" viewBox="0 0 312 294"><defs><style>.cls-1{fill:#ebcfb8;}.cls-2{fill:#ebb597;}.cls-3{fill:#5a2323;}.cls-4{fill:#ffde73;}.cls-5{fill:#ffb750;}.cls-6{fill:#ff9c45;}.cls-7{fill:#ff7c21;}.cls-8{fill:#f1b778;}.cls-9{fill:#e68a5a;}.cls-10{fill:#2eacff;}.cls-11{fill:#ad5cff;}</style></defs><title>hands-right</title><g id="OBJECTS"><path class="cls-1" d="M141.24,247.89a31.23,31.23,0,0,1-3.88-4.75q-3-.24-6.15-.57l-6.44-13.12s-12.15-6.76-11.63-33.39c-5.51-.43-19.77-3.23-10.81,28.52l-2.28,3-6.85-.51-1.38-4.07-19.89-2-5.56,4.31-.58,5.74,1.74,2.05-2.39,4.52.87,5.15.26,2.38-1.81,1.68-.62,8.37,2.5,2.79-.49,10.44L72.78,275l13.56,1,37.55-4.29s4.11.78,11.19,1.48l.65-.45a50.57,50.57,0,0,0,4.55-3.56c.29-.26,1.08-1.1,1.49-1.52a11.1,11.1,0,0,1,5-9.87A11.82,11.82,0,0,1,141.24,247.89Z"/><path class="cls-2" d="M131.15,272.72h4.58a50.57,50.57,0,0,0,4.55-3.56c.29-.26,1.08-1.1,1.49-1.52a13.4,13.4,0,0,1,.1-2c-14.06-.91-21.92-3.41-27.15-2.8C103.92,264.08,94.8,266,94.8,266a18.15,18.15,0,0,0,.92-12.48s5-3.93.82-11c0,0,2-3.29.62-8.5l2.68-3.43.09-1.32.68-.46,1.12,11.61a34.19,34.19,0,0,0,7.74,8.48c-8-11.55-.8-25.09-.8-25.09-8.2-15.74-3-26.78-3-26.78-13.47,3.07-3.94,27.09-3.94,27.09l-.81,3.31-.59-.19a5,5,0,0,1-.31.41l-6.73-.5-1.59,2-1.61.82.87-.68s-14.54-1.62-19.28-.74c-2.82.53-4.68,3.8-4.68,3.8l.81,1.25L67,234.9l-.4,1.55s2.7-3.5,6.4-4.31c.31-.06,8.16,1,8.16,1s4.78-.24,5.26-.42l-.06.81,4.92.9.24,3.5-3.25,4-1.39.82.9,2.14,4,1.13-.07,3.2L88.16,253,87,253.6l2.1-2.49s-13.59-2.47-17.76-1.3c-2,.55-6.65,4.75-6.65,4.75l1.62,3.51,2.53-.53L73,254.49l12.58.8.73-.86,2.9,1.13,1.68,2.6-2.2,5.9,1.13-3.38s-12.22-.71-16.24-.33S66.48,266,66.48,266l.28,3.09,3.18,2.36s3.92,1.25,3.93,2.1S78,275.35,78,275.35l21.38-1.44,9.25-.5,15.24-1.74S126.51,272.17,131.15,272.72Z"/><path class="cls-2" d="M73.6,243.06l11.5.32L90,239.26s-13.7-1.7-18.22-1.07c-3.1.43-6.16,3.68-6.16,3.68l1.69,3.48,2.51-1.24Z"/><path class="cls-3" d="M139.23,242.5c-2.21-.23-6.31-.83-7.15-.95-.73-2.26-3.21-9.35-6.47-12.87a19.58,19.58,0,0,0-3.46-2.83c-3.42-2.36-6.65-4.58-7.3-19.47A23.53,23.53,0,0,1,115,204c.17-2.26.36-4.82-.82-7a5.41,5.41,0,0,0-3.53-2.69,9,9,0,0,0-7,1.67c-2.21,1.48-5.38,6.94-5.52,14.37a27.75,27.75,0,0,0,3.07,14.4c-.8,2.76-4.15,16.84,7.1,26.08a1.13,1.13,0,0,0,1.6-.16,1.15,1.15,0,0,0-.15-1.61c-11.22-9.2-6.45-23.44-6.24-24a1.13,1.13,0,0,0-.07-.9,25.49,25.49,0,0,1-3-13.73c.12-6.77,3-11.5,4.52-12.52a6.86,6.86,0,0,1,5.23-1.34,3.12,3.12,0,0,1,2.06,1.55c.87,1.61.71,3.73.56,5.77a22.82,22.82,0,0,0-.1,2.69c.69,16,4.55,18.68,8.28,21.25a17.35,17.35,0,0,1,3.07,2.5c3.47,3.74,6.16,12.58,6.18,12.67a1.15,1.15,0,0,0,.91.8,54.28,54.28,0,0,0,8,1.35C138.43,244.28,139.74,243.37,139.23,242.5Z"/><path class="cls-3" d="M133.94,273.93c.6-.4,1.2-.81,1.79-1.23.39-.27.77-.55,1.15-.83-7.94-.56-12.69-1.31-12.8-1.33a1.15,1.15,0,0,0-.32,0l-37.48,4.29c-2.43,0-9-.19-11-1-6.56-2.69-8-4.38-8.77-6.93-.46-1.67-.4-5,.3-6.3a8.06,8.06,0,0,1,5.26-4.19c2.74-.69,11.12-.16,14.17.11a4.62,4.62,0,0,1,2.88,1.07c1.14,1.42,1,3.92-1.73,6.2-1.4,1.17-4.34,1-5.35.84H82l-5.16-.38a1.14,1.14,0,1,0-.17,2.28l5.12.38c.67.1,4.75.62,7.12-1.35l.06,0c3.89-3.28,3.76-7.13,2-9.33-1.41-1.76-4.25-1.92-4.51-1.93-.46,0-11.2-1-14.88,0a10.35,10.35,0,0,0-6.69,5.29c-1.13,2-1.05,6.05-.5,8,1,3.67,3.47,5.71,10.09,8.43,2.8,1.15,11,1.19,11.88,1.19h.13l37.4-4.28C124.65,272.94,128.25,273.46,133.94,273.93Z"/><path class="cls-3" d="M89.61,253.57a14.66,14.66,0,0,1-6.26,2.67A1.14,1.14,0,0,1,83,254s3.88-.65,5.64-2.64c1.21-1.36,2.39-3.33,1.13-5a4,4,0,0,0-2.32-.89c-.14,0-11.89-1.21-16.77-.43-1.57.25-4.16,2.14-4.55,3.32-1.76,5.36,1.21,8.29,1.24,8.32a1.14,1.14,0,0,1-1.58,1.65c-.16-.16-4-4-1.82-10.68.7-2.15,4.14-4.51,6.35-4.86,5.17-.83,16.85.36,17.35.41.25,0,2.74.26,3.91,1.77.8,1,2.29,3.9-1.23,7.87A6.12,6.12,0,0,1,89.61,253.57Z"/><path class="cls-3" d="M90.08,241.93a1.56,1.56,0,0,1-.2.16,13.18,13.18,0,0,1-8.21,3,1.13,1.13,0,0,1-1.09-1.18,1.16,1.16,0,0,1,1.19-1.1,11.08,11.08,0,0,0,6.68-2.46c1.9-1.54,2.62-3.38,1.86-4.74-.47-.82-2.11-1.1-2.53-1.13l-2.6-.19A1.14,1.14,0,0,1,85,232s4.39-1.23,6-3.72c1.31-2.05,1.22-3.56.59-4.09a7.69,7.69,0,0,0-3.38-.79h-.08c-.11,0-11.61-1.23-15.48-.74-2.89.36-4.93,1.2-5.5,4.1a8.33,8.33,0,0,0,1.64,6.12,1.14,1.14,0,0,1-.19,1.63A7.16,7.16,0,0,0,66.25,238c-1.09,4.53,1.72,6.47,1.74,6.49a1.14,1.14,0,1,1-1.27,1.9c-.17-.12-4.14-2.86-2.69-8.92a9,9,0,0,1,2.31-4,10.2,10.2,0,0,1-1.5-7.1c1-5.13,5.69-5.71,7.45-5.94,4.06-.51,15.12.65,16,.74.64,0,3.4.21,4.72,1.33s2.06,3.6-.13,7.05a9.74,9.74,0,0,1-3.28,3,4.61,4.61,0,0,1,2.72,2C93.61,236.79,92.73,239.7,90.08,241.93Z"/><path class="cls-3" d="M100.79,228.5a1.13,1.13,0,0,1-.82.27l-6.85-.51a1.14,1.14,0,1,1,.17-2.27l6.85.5a1.13,1.13,0,0,1,1,1.22A1.11,1.11,0,0,1,100.79,228.5Z"/><path class="cls-3" d="M89.61,234.26a1.13,1.13,0,0,1-.82.27l-12.36-.91a30.51,30.51,0,0,0-5.1-.16A6.78,6.78,0,0,0,66.24,238a1.14,1.14,0,1,1-2.2-.57,9,9,0,0,1,6.82-6.18,30.56,30.56,0,0,1,5.76.11l12.34.91A1.13,1.13,0,0,1,90,233.47,1.11,1.11,0,0,1,89.61,234.26Z"/><path class="cls-4" d="M150.82,243l-16-1.37s-8.2,14.8-.27,33.9l21.25,1.29"/><polyline class="cls-5" points="151.93 266.51 132.2 264.82 134.5 273.79 136.87 275.66 154.46 276.73 153.93 273.13"/><path class="cls-3" d="M142.18,271.74a3.59,3.59,0,1,1,3.88-3.28A3.6,3.6,0,0,1,142.18,271.74Zm.42-4.89a1.31,1.31,0,1,0-.22,2.61,1.3,1.3,0,0,0,1.41-1.19A1.32,1.32,0,0,0,142.6,266.85Z"/><path class="cls-6" d="M291.49,151.35c-23.38,100.54-138,89.12-138,89.12-2.91.39-4.1,9.32-2.67,20s4.94,18.92,7.84,18.53c0,0,88.64,7.63,145.51-63.5l-4.58-44.8Z"/><path class="cls-7" d="M151.88,266.27s93.19,6.1,151.11-62.54c.95,9.26,1.2,11.72,1.2,11.72S258.28,282.56,158.68,279C158.68,279,152.92,272.11,151.88,266.27Z"/><path class="cls-3" d="M158.25,280.1c-4.11-.35-7.31-10.37-8.54-19.53-1.32-9.81-.74-20.64,3.65-21.23h.26l.31,0a170.06,170.06,0,0,0,62.38-7.78c17.54-5.8,32.43-14.53,44.26-26,14.65-14.13,24.68-32.48,29.81-54.54a1.14,1.14,0,0,1,2.16-.19l8.12,19.29a1.32,1.32,0,0,1,.08.33l4.59,44.8a1.13,1.13,0,0,1-.25.83c-29.54,37-67.72,52.36-94.56,58.79-28.4,6.8-49.91,5.3-51.83,5.15Zm-4.68-38.48c-1.39.46-3.14,7.18-1.6,18.65s5,17.43,6.48,17.55h.33c.22,0,22.43,1.8,51.21-5.09,26.4-6.32,63.92-21.45,93-57.63l-4.52-44.17-6.71-16c-5.45,21-15.41,38.6-29.63,52.31-12.08,11.66-27.26,20.56-45.12,26.48-31,10.26-60.08,8.15-63.3,7.88Z"/><path class="cls-3" d="M134.42,276.65a1.13,1.13,0,0,1-1-.7c-8.05-19.37,0-34.26.32-34.88a1.15,1.15,0,0,1,1.1-.58l16,1.37a1.14,1.14,0,0,1,1,1.23,1.15,1.15,0,0,1-1.24,1l-15.26-1.3a40.76,40.76,0,0,0-.16,31.59l20.53,1.25a1.16,1.16,0,0,1,1.07,1.21,1.14,1.14,0,0,1-1.21,1.07l-21.24-1.29Z"/><path class="cls-8" d="M191.36-41.25s30.7,108.36-112,159.13l-11.78-9.33S53.7,110.59,42,82.71c-5.3,2.05-19.77,5.77,2.6,31.26l-.76,3.84-6.58,2.57-3.09-3.18-19.33,7-3.25,6.46,2,5.59,2.52,1.13-.22,5.25L19,147l1.3,2.09-.94,2.36,3.14,8L26.07,161l4.16,9.9,9.29,2.92,13-5.08L85.5,148.12s115.94-30.28,136.87-139C213-15.06,201.23-45.1,201.23-45.1Z"/><path class="cls-9" d="M18.25,146.26l3.11,2.48,1.79-2.26,3-2.63L37,139.05l2.75-6s-13.46,4.5-17.38,7.08C19.65,141.89,18.25,146.26,18.25,146.26ZM23,158.45,26.07,161l2.11-1.62,2.5-4.67,12-4.82.29-1.12,3.19-.24,2.72,1.66.57,6.46L49,153s-11.65,4.76-15.22,6.9-4.1,8.41-4.1,8.41l1.64,2.74,4,.79s4.19-.58,4.58.2,4.64-.18,4.64-.18L63.76,161l8.37-4.55,13.37-8.37s2.65-.7,7.2-2.24l14.72-7.09s27.75-10.89,52.52-29.51A190.33,190.33,0,0,0,182.75,88c.83-1,1.63-2,2.41-3.07,24.93-33.14,36.39-71.88,36.39-71.88l0-.15c.27-1.25.54-2.5.78-3.78-1.89-4.85-3.87-9.94-5.84-15-3.31,20.8-15.07,68.55-55.39,101.72C108.27,139.37,82.52,138,73.06,144S56,155.73,56,155.73a18.66,18.66,0,0,0-4.68-12s2.87-5.85-4.12-10.58c0,0,.37-3.93-3.18-8.17l1-4.37-.49-1.26.43-.73,6.17,10.28a35.15,35.15,0,0,0,11,4.43c-12.52-7.17-11.86-22.92-11.86-22.92-14.58-11-14.62-23.54-14.62-23.54-11.15,8.82,8.35,26.89,8.35,26.89l.71,3.43-.63.09-.11.51-6.46,2.52-.58,2.59-1.13,1.47.5-1S22,128.31,18,131.23c-2.38,1.74-2.66,5.6-2.66,5.6l1.31.81-.22,1.57.31,1.61s.95-4.44,4-6.83c.26-.2,8-2.67,8-2.67s4.34-2.34,4.7-2.73l.3.78,5-1.35,1.78,3.15-1.26,5.13-.92,1.38,1.78,1.58,4.26-.74,1.35,3-1.65,5.08-.78,1.09.85-3.26s-13.7,3.74-17.06,6.67C25.49,152.48,23,158.45,23,158.45Z"/><path class="cls-3" d="M62,135.71a1,1,0,0,1-.29,0C47.14,132.09,44,117.54,43.53,114.61a28.53,28.53,0,0,1-9.23-12c-3.16-7-2.63-13.42-1.24-15.79a9.2,9.2,0,0,1,5.81-4.67,5.54,5.54,0,0,1,4.45.93c2.08,1.52,3,4,3.88,6.16a23.23,23.23,0,0,0,1,2.28c7.2,13.53,11.19,14.17,15.41,14.84A19.44,19.44,0,0,1,68,107.46c4.59,1.82,10,7.31,11.71,9.08,5-1.56,36.24-11.91,64.47-34.46,17.93-14.32,31.15-30.7,39.3-48.67C193.7,11,196-14.06,190.21-41a1.18,1.18,0,0,1,.91-1.4,1.18,1.18,0,0,1,1.39.91c5.84,27.45,3.53,53-6.87,75.91-8.31,18.31-21.77,35-40,49.54-31,24.73-65.56,34.94-65.91,35a1.16,1.16,0,0,1-1.2-.34c-.06-.07-6.46-7.08-11.34-9a17.66,17.66,0,0,0-4-1c-4.6-.74-9.36-1.5-17.11-16.06A24,24,0,0,1,45,90.1c-.77-2-1.56-4-3.08-5.11a3.16,3.16,0,0,0-2.6-.53A7,7,0,0,0,35.09,88c-1,1.62-1.54,7.28,1.35,13.63A26.13,26.13,0,0,0,45.34,113a1.15,1.15,0,0,1,.45.8c.07.65,2,16,16.45,19.55a1.18,1.18,0,0,1-.28,2.32Z"/><path class="cls-10" d="M117.68,134.53a7,7,0,0,0,5.56.83c3.18-.87,3.41-3.78,1.7-4.15C123.31,132.08,117.68,134.53,117.68,134.53Z"/><path class="cls-11" d="M104.36,140.87a7,7,0,0,0,5.56.83c3.18-.87,3.4-3.78,1.7-4.15C110,138.42,104.36,140.87,104.36,140.87Z"/><path class="cls-3" d="M38.32,174.06c-5.15,0-7.75-1-9.92-3.45-1.38-1.59-3.23-5.27-3.09-7.67a10.68,10.68,0,0,1,3.87-7.88c3-2.48,13.39-6.38,13.82-6.55.26-.11,3-1.22,5-.21,2.63,1.27,4.46,4.82,2.25,9.61-1.32,2.88-5.34,4.21-6,4.41l-4.92,1.92a1.18,1.18,0,0,1-1.52-.67,1.17,1.17,0,0,1,.67-1.52l5-1.93.1,0c1-.3,3.81-1.45,4.59-3.15,1.55-3.37.55-5.71-1.14-6.52a4.7,4.7,0,0,0-3.15.28c-3,1.1-11,4.33-13.2,6.18a8.23,8.23,0,0,0-3,6.21c-.09,1.5,1.34,4.64,2.51,6,1.79,2.05,3.92,3,11.2,2.56,2.23-.13,8.36-2.84,10.62-3.91l32.89-20.59a1.08,1.08,0,0,1,.29-.13,245.92,245.92,0,0,0,61.49-30.25c18.45-12.53,33.9-26.87,45.9-42.62A147.65,147.65,0,0,0,221.22,8.93a1.17,1.17,0,0,1,2.31.39,150.06,150.06,0,0,1-29.12,66.25c-12.17,16-27.81,30.48-46.49,43.15A249.17,249.17,0,0,1,86,149.19L53.18,169.73l-.12.07c-.85.4-8.45,4-11.56,4.16C40.34,174,39.29,174.06,38.32,174.06Z"/><path class="cls-3" d="M26,161.56a1.15,1.15,0,0,1-.37-.06c-.23-.07-5.5-1.89-6.43-9.1-.29-2.31,1.85-6,3.74-7.33,4.44-3.06,15.81-7.13,16.29-7.3.24-.1,2.66-1,4.41-.09,1.21.61,3.86,2.6,2.35,7.85-1,3.43-4.82,6.12-5,6.23a1.17,1.17,0,1,1-1.33-1.93s3.32-2.33,4.06-4.94c.52-1.81.74-4.16-1.15-5.11a4.13,4.13,0,0,0-2.54.19c-.14.05-11.58,4.14-15.76,7-1.34.93-2.91,3.84-2.75,5.1.73,5.69,4.67,7.12,4.84,7.18a1.17,1.17,0,0,1-.37,2.28Z"/><path class="cls-3" d="M21.4,150h-.17c-.21,0-5.11-.82-6.45-7.08a9.21,9.21,0,0,1,.37-4.73,10.48,10.48,0,0,1-4.54-5.93c-1.34-5.19,2.75-7.82,4.29-8.81,3.54-2.26,14.32-6.1,15.15-6.39.61-.26,3.25-1.31,5-.86s3.51,2.44,3,6.6A9.83,9.83,0,0,1,36.3,127a4.7,4.7,0,0,1,3.39.62c2.3,1.61,2.75,4.81,1.15,8.15a13.62,13.62,0,0,1-6.31,6.39,1.17,1.17,0,1,1-.92-2.15,11.53,11.53,0,0,0,5.11-5.26c1.08-2.25.94-4.29-.37-5.21-.8-.56-2.45-.09-2.85.07l-2.5,1a1.17,1.17,0,0,1-1.19-2s3.53-3.09,3.89-6.1c.3-2.49-.42-3.83-1.27-4a7.92,7.92,0,0,0-3.49.76c-.19.07-11.4,4-14.77,6.2-2.52,1.62-4.05,3.3-3.28,6.24a8.59,8.59,0,0,0,4.23,5,1.14,1.14,0,0,1,.61.68,1.2,1.2,0,0,1-.06.91,7.3,7.3,0,0,0-.6,4.2c1,4.62,4.37,5.24,4.51,5.26a1.17,1.17,0,0,1,1,1.34A1.16,1.16,0,0,1,21.4,150Z"/><path class="cls-3" d="M37.28,121.55a1.17,1.17,0,0,1-.42-2.27l6.58-2.56a1.17,1.17,0,1,1,.85,2.18l-6.58,2.57A1.31,1.31,0,0,1,37.28,121.55Z"/><path class="cls-3" d="M15.92,143.79a1.18,1.18,0,0,1-1.15-.95,9.27,9.27,0,0,1,3.59-8.75,31.47,31.47,0,0,1,5.4-2.45L35.62,127a1.17,1.17,0,0,1,.85,2.18L24.6,133.83A32.58,32.58,0,0,0,19.79,136a6.92,6.92,0,0,0-2.71,6.45,1.18,1.18,0,0,1-.93,1.37A.9.9,0,0,1,15.92,143.79Z"/><path class="cls-11" d="M98,105.65,89,109.07s-6.14,7.15-.68,19.39,12.18,14.74,12.18,14.74l4.37.55.38-2.44-6.51-5.73s-8.37-13.74-6.89-21c1.77-8.75,5.62-5,5.62-5l4.18-1.83,2.43.17Z"/><path class="cls-3" d="M102.67,145.41c-5.21,0-11.46-6.24-15.09-15.52a32.65,32.65,0,0,1-2.44-14.18c.37-4.49,2.11-7.57,4.9-8.65l4.59-1.64a1.17,1.17,0,1,1,.79,2.21l-4.56,1.62c-1.85.73-3.09,3.16-3.39,6.66A30.47,30.47,0,0,0,89.77,129c3.56,9.1,10.08,15.41,14.25,13.78l5.58-2.18a1.17,1.17,0,1,1,.85,2.19L104.88,145A6.18,6.18,0,0,1,102.67,145.41Z"/><path class="cls-3" d="M108.25,143.22c-5.21,0-11.46-6.23-15.09-15.51C89,117.07,90.08,107,95.61,104.87c2.55-1,5.65-.15,8.71,2.37a1.17,1.17,0,0,1-1.49,1.81c-2.38-2-4.64-2.66-6.36-2-4.17,1.63-4.68,10.69-1.13,19.79s10.09,15.41,14.26,13.78a5.28,5.28,0,0,0,2.73-3.28,1.18,1.18,0,0,1,2.21.8,7.41,7.41,0,0,1-4.08,4.67A6.17,6.17,0,0,1,108.25,143.22Z"/><path class="cls-3" d="M98.62,111a.5.5,0,0,1-.55-.11,4,4,0,0,0-3-1.4,3.39,3.39,0,0,0-2.19,1.19.5.5,0,0,1-.72.09.52.52,0,0,1-.1-.72A4.38,4.38,0,0,1,95,108.42a5,5,0,0,1,3.78,1.69.53.53,0,0,1,0,.74A.42.42,0,0,1,98.62,111Z"/><path class="cls-10" d="M109.24,100l-8.79,4.06s-5.63,7.56.67,19.38,13.18,13.86,13.18,13.86l4.4.24.2-2.46L112,129.83s-9.3-13.12-8.34-20.49c1.15-8.85,5.69-4.93,5.69-4.93l4.15-2.13,1.9-.41Z"/><path class="cls-3" d="M116.17,139.37c-5.13,0-11.52-5.71-15.67-14.44a32.79,32.79,0,0,1-3.43-14c.07-4.51,1.59-7.7,4.29-9l4.46-2a1.17,1.17,0,1,1,.94,2.15l-4.43,1.93c-1.79.85-2.86,3.37-2.91,6.88a30.39,30.39,0,0,0,3.2,12.93c4.19,8.83,11.15,14.67,15.19,12.75l5.4-2.56a1.17,1.17,0,1,1,1,2.12l-5.41,2.56A6.1,6.1,0,0,1,116.17,139.37Z"/><path class="cls-3" d="M121.56,136.81c-2.15,0-4.55-1-7-2.95a32.84,32.84,0,0,1-8.64-11.5,32.72,32.72,0,0,1-3.43-14c.07-4.51,1.59-7.7,4.29-9,2.47-1.17,5.62-.55,8.85,1.76a1.17,1.17,0,1,1-1.36,1.91c-2.51-1.79-4.81-2.34-6.48-1.55-1.83.87-2.9,3.38-3,6.9A33.52,33.52,0,0,0,116,132c2.76,2.19,5.38,2.95,7.2,2.09a5.25,5.25,0,0,0,2.5-3.46,1.17,1.17,0,0,1,2.26.63,7.37,7.37,0,0,1-3.75,4.95A6.18,6.18,0,0,1,121.56,136.81Z"/><path class="cls-3" d="M110.2,105.28a.52.52,0,0,1-.56-.08,4,4,0,0,0-3.06-1.19,3.34,3.34,0,0,0-2.1,1.34.51.51,0,1,1-.86-.56,4.33,4.33,0,0,1,2.8-1.8,4.93,4.93,0,0,1,3.89,1.43.52.52,0,0,1-.11.86Z"/></g></svg>